<?xml version="1.0" ?><svg id="flat" viewBox="0 0 340 340" xmlns="http://www.w3.org/2000/svg"><title/><path d="M31.5,250.156A159.256,159.256,0,0,1,10,170q0-1.371.023-2.738s70.3-135.868,156-153.281c8.332-1.693,27.848-2.212,27.848-2.212a159.116,159.116,0,0,1,67.674,26.993C273.1,51.393,292.574,78.6,288.73,91.13,261.705,179.224,114.1,333.319,31.5,250.156Z" style="fill:#fff8f1"/><circle cx="111.96" cy="125.952" r="58.255" style="fill:#fff" transform="translate(-18.73 19.56) rotate(-9.217)"/><path d="M10.035,167.262c35.9-23.235,119.671-81.3,183.839-155.487a161.667,161.667,0,0,0-49.6.282C96.486,35.47,55.385,72.161,18.749,117.716A159.665,159.665,0,0,0,10.035,167.262Z" style="fill:#ff9473"/><path d="M261.542,38.77A160,160,0,0,1,31.5,250.153c23.478,30,53.076,55.524,93.209,73.346A160.017,160.017,0,0,0,170,330a161.716,161.716,0,0,0,17.339-.929C253.5,301.79,299.811,255.436,328.483,192.123a161.812,161.812,0,0,0-1.264-51.976C312.474,98.9,289.05,66.7,261.542,38.77Z" style="fill:#ffdbd2"/><path d="M18.748,117.716c33.591-24.539,86.467-65.334,125.5-105.644A160.2,160.2,0,0,0,18.748,117.716Z" style="fill:#ff5447"/><path d="M130.06,319.933c86.081-56.286,168.3-150.427,192.94-177.928L266.391,42.293c-70.7,80.8-173.109,158.04-237.543,203.1q1.289,2.407,2.656,4.764C61.4,277.254,97.725,298.367,130.06,319.933Z" style="fill:#ff9473"/><path d="M327.208,140.149c-.2-1.052-.413-2.1-.632-3.144-.046-.219-.088-.44-.135-.659-.2-.954-.422-1.9-.644-2.85q-.151-.653-.308-1.3-.334-1.38-.691-2.751c-.107-.411-.22-.82-.331-1.229q-1.215-4.5-2.682-8.895c-.156-.466-.309-.932-.469-1.4q-.429-1.247-.878-2.481-.274-.756-.558-1.507c-.3-.81-.606-1.62-.922-2.424-.179-.455-.367-.905-.55-1.357q-.864-2.144-1.789-4.255c-.245-.558-.486-1.117-.737-1.672-.321-.712-.652-1.419-.983-2.125q-.414-.882-.838-1.757-.493-1.019-1-2.032c-.326-.65-.662-1.3-1-1.939q-.663-1.278-1.347-2.544c-.478-.88-.959-1.759-1.452-2.63-.322-.568-.654-1.129-.983-1.693q-.592-1.015-1.2-2.024-.322-.534-.649-1.067c-3.484-3.718-7.11-9.254-10.789-15.458l-.21-.266q-1.245-1.57-2.525-3.11c-.052-.062-.1-.125-.153-.187q-1.373-1.639-2.791-3.238c-.273-.31-.552-.616-.828-.924q-1.057-1.181-2.139-2.34-.44-.471-.881-.939-1.247-1.315-2.522-2.6c-.159-.16-.314-.324-.474-.483q-1.554-1.554-3.151-3.065c-.181-.171-.365-.338-.546-.508q-1.321-1.239-2.67-2.448-.42-.378-.845-.752-1.317-1.164-2.662-2.3c-.22-.187-.439-.376-.66-.561q-3.04-2.542-6.211-4.928c-.587.671-1.194,1.339-1.785,2.009a159.161,159.161,0,0,1,18.392,69.92,39.853,39.853,0,0,1,.068,4.714c-7.564,84.421-79.132,156.09-160,160a89.241,89.241,0,0,1-9.619-.285,159.137,159.137,0,0,1-81.908-28.491q.27.467.543.931.736,1.25,1.5,2.485c.319.519.636,1.04.961,1.556q.949,1.507,1.934,2.991c.29.437.579.875.872,1.31q1.093,1.617,2.223,3.207c.354.5.716.989,1.075,1.482q.838,1.149,1.7,2.284c.385.509.771,1.018,1.162,1.522.622.8,1.254,1.594,1.89,2.384.333.414.661.833,1,1.243q1.377,1.676,2.8,3.312c.4.459.807.91,1.211,1.365q.928,1.044,1.873,2.075.684.743,1.376,1.476.717.759,1.445,1.507c7.223,4.691,13.38,9.518,16.386,14.744q.89.7,1.791,1.381c.687.522,1.373,1.044,2.068,1.555.626.461,1.259.912,1.892,1.363q.915.652,1.837,1.291c.655.454,1.312.906,1.974,1.35.621.417,1.25.823,1.877,1.232q1.681,1.092,3.39,2.143c.669.412,1.336.827,2.011,1.228.724.431,1.457.849,2.188,1.269q.879.505,1.765,1,1.128.629,2.268,1.241c.573.307,1.15.606,1.727.906q4.134,2.153,8.407,4.067c.552.247,1.1.5,1.657.736q1.258.546,2.53,1.071.828.342,1.662.674c.869.349,1.738.7,2.614,1.03.407.155.818.3,1.225.451q2.619.972,5.28,1.853c.509.169,1.016.341,1.527.5.908.291,1.82.569,2.734.844.273.082.547.16.821.241C210.794,267.191,302.565,167.649,327.208,140.149Z" style="fill:#ff684f"/><path d="M187.338,329.062A160.064,160.064,0,0,0,328.471,192.121C287.99,243.447,236.559,292.761,187.338,329.062Z" style="fill:#d13939"/><path d="M295.647,70.957c-33.089,43.622-84.611,90.718-109.095,112.2a44.279,44.279,0,0,1-29,10.962,110.819,110.819,0,0,0-14.608,1.036c-29.921,4.135-54.351,26.389-60.242,56.014q-.057.281-.109.557A32.081,32.081,0,0,1,69.121,272.28c-4.8,3.259-9.562,6.288-14.036,9.023a121.911,121.911,0,0,1,16.383,14.748c2.7-1.993,5.263-3.912,7.592-5.684a54.021,54.021,0,0,1,28.131-10.979c47.594-3.989,65.088-35.9,71.337-55.038a56.435,56.435,0,0,1,17.649-25.94A789.689,789.689,0,0,0,306.435,86.416,136.917,136.917,0,0,1,295.647,70.957Z" style="fill:#ff5447"/><path d="M71.479,296.042c2.7-1.989,5.255-3.9,7.581-5.675a54.021,54.021,0,0,1,28.131-10.979c2.15-.18,4.217-.436,6.246-.726a159.171,159.171,0,0,1-41.9-8.2q-1.162.963-2.42,1.821c-4.8,3.258-9.558,6.286-14.032,9.02.064.065.126.132.19.2q1.7,1.745,3.444,3.436c.135.131.269.264.4.394q1.81,1.741,3.675,3.424c.1.093.2.186.3.278q1.878,1.688,3.81,3.314c.187.158.375.314.563.472q1.727,1.445,3.5,2.838C71.143,295.784,71.312,295.912,71.479,296.042Z" style="fill:#d13939"/><path d="M280.4,89.848a160.373,160.373,0,0,1,2.579,24.386c9.629-10.874,17.5-20.366,23.452-27.818q-3.675-5.988-7.851-11.617l-.164-.221q-1.362-1.83-2.773-3.621C290.9,77.212,285.771,83.537,280.4,89.848Z" style="fill:#d13939"/><path d="M107.137,242.637c.023-.146.046-.293.07-.441a31.257,31.257,0,0,1,25.434-25.442,59.191,59.191,0,0,1,6.546-.8,13.153,13.153,0,0,1,13.756,15.381c-1.171,6.733-4.074,14.493-10.773,20.355,0,0-6.911,6.293-22.258,6.109A13.152,13.152,0,0,1,107.137,242.637Z" style="fill:#ff9473"/><circle cx="208.349" cy="223.547" r="12.446" style="fill:#fff8f1"/><path d="M130.06,240.86a3.993,3.993,0,0,1-4-4,4.129,4.129,0,0,1,.08-.78,3.978,3.978,0,0,1,.23-.75,4.609,4.609,0,0,1,.359-.69,5.106,5.106,0,0,1,.5-.61,4.04,4.04,0,0,1,3.611-1.09,4.033,4.033,0,0,1,1.44.6,4.093,4.093,0,0,1,.61.49,5.011,5.011,0,0,1,.5.61,4.615,4.615,0,0,1,.36.69,3.975,3.975,0,0,1,.229.75,4.05,4.05,0,0,1,.081.78,3.97,3.97,0,0,1-.081.78,3.763,3.763,0,0,1-.229.75,4.176,4.176,0,0,1-.36.69,4.348,4.348,0,0,1-.5.61,4.919,4.919,0,0,1-.61.5,4.579,4.579,0,0,1-.69.37,3.809,3.809,0,0,1-.75.22A4.138,4.138,0,0,1,130.06,240.86Z" style="fill:#ff9473"/><path d="M216.8,274.457a4.066,4.066,0,0,1-2.83-1.17,4.216,4.216,0,0,1-.49-.609,4,4,0,0,1-.37-.691,3.763,3.763,0,0,1-.229-.75,4.131,4.131,0,0,1-.081-.78,3.992,3.992,0,0,1,4.781-3.92,3.832,3.832,0,0,1,.75.23,3.841,3.841,0,0,1,1.3.86,3.987,3.987,0,0,1,1.169,2.83,4.034,4.034,0,0,1-.07.78,4.656,4.656,0,0,1-.229.75,4.83,4.83,0,0,1-.37.691,5.1,5.1,0,0,1-.5.609,3.558,3.558,0,0,1-.611.49,3.487,3.487,0,0,1-.689.37,3.766,3.766,0,0,1-.75.23A3.979,3.979,0,0,1,216.8,274.457Z" style="fill:#d13939"/><path d="M247.9,92.63a4,4,0,1,1,2.83-6.83,4.746,4.746,0,0,1,.5.61,4.441,4.441,0,0,1,.361.69,4.049,4.049,0,0,1,.229.75,3.388,3.388,0,0,1,.08.78,3.995,3.995,0,0,1-4,4Z" style="fill:#fff8f1"/><path d="M230.764,21.954c-18.105,20.2-40.515,43.067-61.075,62.252a4,4,0,0,0,5.459,5.849C196.53,70.1,219.909,46.2,238.457,25.353Q234.665,23.554,230.764,21.954Z" style="fill:#ff9473"/><path d="M154.342,107.6a4,4,0,0,1-2.661-6.987l1.2-1.066a4,4,0,0,1,5.318,5.976L157,106.583A3.984,3.984,0,0,1,154.342,107.6Z" style="fill:#ff9473"/><path d="M91.762,159.189a4,4,0,0,1-2.435-7.175c15.242-11.671,30.224-23.753,44.528-35.911a4,4,0,1,1,5.182,6.095c-14.408,12.246-29.5,24.415-44.847,36.167A3.978,3.978,0,0,1,91.762,159.189Z" style="fill:#ff9473"/><path d="M69.909,175.517a4,4,0,0,1-2.357-7.235l2.063-1.508a4,4,0,0,1,4.731,6.453l-2.085,1.523A3.987,3.987,0,0,1,69.909,175.517Z" style="fill:#ff9473"/><path d="M56.426,181.206a4,4,0,0,0-5.572-.975c-12.318,8.649-26.587,18.2-36.96,24.97q.93,4.141,2.067,8.2c10.557-6.846,26.161-17.263,39.49-26.623A4,4,0,0,0,56.426,181.206Z" style="fill:#ff9473"/><path d="M111.96,67.7a58.218,58.218,0,0,0-57.275,68.855,972.624,972.624,0,0,0,79.656-64.394A58.081,58.081,0,0,0,111.96,67.7Z" style="fill:#ff9d86"/><path d="M111.96,184.207a58.267,58.267,0,0,0,57.169-47.062c-19.252,16.58-38.669,32.368-57.457,47.054C111.769,184.2,111.863,184.207,111.96,184.207Z" style="fill:#ff9d86"/><path d="M264.6,44.314h0l1.785-2.009c-1.593-1.2-3.2-2.39-4.839-3.535C262.6,40.593,263.609,42.447,264.6,44.314Z" style="fill:#ffdbd2"/><path d="M293.419,215.1a4.066,4.066,0,0,1-2.83-1.17,4.224,4.224,0,0,1-.49-.61,3.892,3.892,0,0,1-.37-.69,3.832,3.832,0,0,1-.23-.75,4.213,4.213,0,0,1-.08-.78,3.992,3.992,0,0,1,4.781-3.92,3.875,3.875,0,0,1,.75.23,3.824,3.824,0,0,1,1.3.86,3.987,3.987,0,0,1,1.17,2.83,4.034,4.034,0,0,1-.07.78,4.759,4.759,0,0,1-.229.75,4.677,4.677,0,0,1-.371.69,4.919,4.919,0,0,1-.5.61,4.259,4.259,0,0,1-1.3.86,3.875,3.875,0,0,1-.75.23A4.057,4.057,0,0,1,293.419,215.1Z" style="fill:#d13939"/><path d="M126.06,302.63a4.067,4.067,0,0,1-2.831-1.17,4.224,4.224,0,0,1-.49-.61,3.958,3.958,0,0,1-.37-.69,3.83,3.83,0,0,1-.229-.75,4.129,4.129,0,0,1-.08-.78,3.991,3.991,0,0,1,4.78-3.92,3.832,3.832,0,0,1,.75.23,4.13,4.13,0,0,1,.689.36,4.233,4.233,0,0,1,.611.5,3.987,3.987,0,0,1,1.17,2.83,4.035,4.035,0,0,1-.071.78,4.656,4.656,0,0,1-.229.75,4.767,4.767,0,0,1-.37.69,5.106,5.106,0,0,1-.5.61,3.607,3.607,0,0,1-.611.49,3.54,3.54,0,0,1-.689.37,3.832,3.832,0,0,1-.75.23A4.055,4.055,0,0,1,126.06,302.63Z" style="fill:#ed3c38"/><path d="M180.75,170a4.07,4.07,0,0,1-2.83-1.169,4.279,4.279,0,0,1-.49-.61,4,4,0,0,1-.37-.691,3.724,3.724,0,0,1-.229-.75,4.131,4.131,0,0,1-.081-.78,3.991,3.991,0,0,1,4.781-3.919,3.7,3.7,0,0,1,.75.23,4.126,4.126,0,0,1,.689.359,4.233,4.233,0,0,1,.611.5A3.987,3.987,0,0,1,184.75,166a4.034,4.034,0,0,1-.07.78,4.6,4.6,0,0,1-.229.75,4.83,4.83,0,0,1-.37.691,5.187,5.187,0,0,1-.5.61,3.6,3.6,0,0,1-.611.489,3.487,3.487,0,0,1-.689.37,3.7,3.7,0,0,1-.75.23A3.979,3.979,0,0,1,180.75,170Z" style="fill:#ff5447"/><path d="M301.419,140.551a4.066,4.066,0,0,1-2.83-1.17,4.216,4.216,0,0,1-.49-.609,3.935,3.935,0,0,1-.37-.691,3.832,3.832,0,0,1-.23-.75,4.213,4.213,0,0,1-.08-.78,3.992,3.992,0,0,1,4.781-3.92,3.875,3.875,0,0,1,.75.23,3.824,3.824,0,0,1,1.3.86,3.988,3.988,0,0,1,1.17,2.83,4.034,4.034,0,0,1-.07.78,4,4,0,0,1-.6,1.441,4.909,4.909,0,0,1-.5.609,4.259,4.259,0,0,1-1.3.86,3.806,3.806,0,0,1-.75.23A3.979,3.979,0,0,1,301.419,140.551Z" style="fill:#ffd3c9"/></svg>